<?xml version="1.0" standalone="no"?>
<!DOCTYPE svg PUBLIC "-//W3C//DTD SVG 20010904//EN"
 "http://www.w3.org/TR/2001/REC-SVG-20010904/DTD/svg10.dtd">
<svg version="1.0" xmlns="http://www.w3.org/2000/svg"
 width="779.000000pt" height="779.000000pt" viewBox="0 0 779.000000 779.000000"
 preserveAspectRatio="xMidYMid meet">
<metadata>
Created by potrace 1.11, written by Peter Selinger 2001-2013
</metadata>
<g transform="translate(0.000000,779.000000) scale(0.100000,-0.100000)"
fill="#000000" stroke="none">
<path d="M3639 7786 c-2 -2 -42 -7 -89 -10 -88 -7 -93 -8 -220 -26 -127 -18
-143 -21 -205 -35 -33 -8 -76 -17 -95 -20 -19 -3 -49 -10 -66 -16 -17 -5 -40
-11 -52 -14 -72 -13 -362 -107 -437 -140 -16 -7 -75 -32 -130 -55 -111 -46
-346 -166 -452 -231 -157 -96 -393 -261 -401 -281 -2 -4 -10 -8 -17 -8 -7 0
-15 -4 -17 -9 -1 -4 -32 -32 -68 -62 -166 -137 -372 -347 -518 -528 -238 -296
-407 -577 -570 -951 -107 -247 -219 -650 -256 -920 -14 -105 -17 -128 -21
-160 -26 -223 -26 -597 1 -845 19 -170 71 -444 113 -595 12 -41 24 -84 26 -94
13 -55 103 -303 147 -404 135 -313 336 -655 514 -875 130 -160 188 -224 334
-369 335 -332 697 -584 1117 -776 163 -75 387 -158 533 -199 84 -23 123 -33
145 -38 16 -4 42 -10 85 -20 54 -13 155 -32 210 -40 19 -3 44 -8 55 -10 11 -2
47 -7 79 -11 33 -3 69 -8 80 -10 130 -25 733 -24 865 1 9 2 47 6 85 9 38 4 73
9 77 12 4 2 27 7 51 10 127 17 372 76 543 131 107 35 314 112 351 131 11 5 53
25 94 43 66 30 241 120 310 160 14 8 95 59 180 115 250 163 413 295 630 514
172 174 185 188 355 405 48 61 175 250 232 345 238 396 423 902 493 1345 32
202 35 228 45 400 26 418 -14 833 -120 1240 -33 128 -120 392 -155 470 -10 22
-34 78 -55 125 -47 109 -158 322 -222 425 -246 399 -527 718 -904 1028 -296
244 -715 478 -1116 623 -163 59 -464 140 -597 160 -21 3 -48 8 -60 10 -11 3
-68 11 -126 19 -58 8 -125 17 -150 20 -47 7 -625 16 -631 11z"/>
</g>
</svg>
